<?xml version="1.0" standalone="no"?>
<!DOCTYPE svg PUBLIC "-//W3C//DTD SVG 20010904//EN"
 "http://www.w3.org/TR/2001/REC-SVG-20010904/DTD/svg10.dtd">
<svg version="1.0" xmlns="http://www.w3.org/2000/svg"
 width="387.000000pt" height="381.000000pt" viewBox="0 0 387.000000 381.000000"
 preserveAspectRatio="xMidYMid meet">

<g transform="translate(0.000000,381.000000) scale(0.100000,-0.100000)"
fill="#000000" stroke="none">
<path d="M1925 3391 c-49 -12 -91 -38 -121 -76 l-29 -35 -40 15 c-97 35 -234
2 -315 -74 -64 -60 -89 -118 -90 -199 l0 -63 -43 -18 c-129 -55 -202 -261
-131 -367 l26 -38 -58 -50 c-33 -28 -88 -80 -122 -116 -35 -36 -66 -60 -68
-55 -33 71 -53 102 -73 112 -13 6 -34 24 -46 39 l-22 28 -6 -70 c-5 -59 -2
-78 19 -129 50 -119 49 -110 17 -159 -15 -25 -33 -45 -39 -46 -5 0 -107 97
-225 216 -117 119 -227 222 -243 229 -35 15 -81 5 -102 -22 -7 -10 -14 -36
-14 -58 0 -39 6 -46 247 -286 136 -136 249 -252 251 -258 2 -7 -10 -55 -27
-109 -55 -178 -66 -249 -66 -462 0 -107 3 -220 7 -250 l8 -56 -108 -18 c-59
-10 -159 -27 -222 -37 -164 -28 -220 -41 -220 -51 0 -19 75 -124 124 -176 28
-29 53 -58 54 -63 2 -5 -10 -31 -26 -57 -31 -48 -94 -179 -107 -219 -3 -13 -2
-23 2 -23 5 0 70 16 144 35 451 116 1072 185 1664 185 497 -1 1020 -48 1438
-131 146 -29 389 -89 444 -110 15 -5 30 -6 35 -1 9 9 -63 130 -117 196 -19 24
-35 50 -35 58 0 8 25 54 55 103 30 48 55 89 55 91 0 2 11 20 25 40 14 20 25
40 25 44 0 7 -48 18 -190 41 -262 42 -335 56 -335 64 0 6 7 62 14 126 17 139
10 377 -13 494 -22 106 -80 283 -124 372 l-35 72 37 45 c20 25 55 55 79 68 38
21 42 27 43 63 0 22 9 62 19 88 l18 49 91 -7 c50 -3 145 -7 211 -8 l120 -2 0
40 0 40 -195 3 c-109 1 -199 7 -204 12 -6 6 -115 10 -273 10 l-263 0 -92 70
c-107 80 -253 156 -383 198 -92 30 -252 62 -312 62 -26 0 -42 8 -68 38 -19 20
-35 42 -35 47 0 6 17 20 38 32 56 32 119 89 154 140 25 37 32 59 36 112 4 57
1 74 -21 116 -31 61 -51 80 -106 100 -46 16 -87 18 -136 6z m138 -63 c71 -41
97 -147 57 -235 -24 -55 -143 -172 -181 -180 -16 -3 -29 -8 -29 -10 0 -3 20
-29 45 -57 25 -29 45 -56 45 -59 0 -3 -17 -11 -37 -18 -96 -31 -201 -103 -252
-174 -18 -25 -36 -43 -41 -40 -13 8 -100 126 -100 136 0 5 17 9 38 9 38 0 103
20 151 45 56 29 119 112 135 178 9 38 -6 34 -29 -9 -43 -81 -163 -160 -287
-189 -61 -14 -85 -25 -54 -25 9 0 21 -12 27 -27 9 -23 6 -30 -23 -60 -73 -76
-189 -103 -268 -63 -58 29 -83 71 -84 139 -1 92 50 185 128 235 40 25 44 32
50 78 22 167 177 279 366 266 64 -5 71 -3 92 19 61 65 174 83 251 41z m0 -592
c17 -26 13 -36 -14 -36 -9 0 -59 -21 -110 -47 -71 -35 -109 -62 -161 -115 -38
-38 -73 -66 -78 -63 -30 18 14 100 90 169 49 44 192 116 231 116 17 0 32 -9
42 -24z m149 -100 c31 -30 54 -57 51 -60 -14 -14 -43 -4 -77 28 -52 50 -44 20
15 -54 62 -78 139 -208 139 -235 0 -12 -19 -40 -43 -63 -41 -40 -45 -42 -76
-31 -66 23 -140 -22 -155 -94 -3 -15 -8 -39 -12 -53 l-5 -27 -25 24 c-25 23
-54 70 -54 86 0 5 14 14 32 21 45 17 33 21 -45 15 l-68 -6 31 -18 c16 -10 30
-25 30 -33 0 -8 16 -35 35 -60 20 -26 30 -46 22 -47 -28 -3 -32 -4 -34 -14 -4
-28 48 -61 110 -70 46 -7 46 -7 33 -34 -8 -14 -19 -45 -25 -69 -11 -38 -14
-41 -32 -31 -26 13 -24 15 -36 -46 l-9 -50 -24 39 c-25 41 -22 41 -119 20
l-34 -7 6 44 c8 60 -8 235 -28 303 -16 54 -18 56 -51 56 -108 0 -172 93 -108
156 21 21 31 25 59 20 34 -7 57 7 30 18 -10 3 -15 19 -15 44 0 31 8 47 49 93
61 69 163 136 250 166 100 34 117 31 183 -31z m298 -121 c52 -26 71 -45 45
-45 -28 0 -27 -25 5 -111 22 -61 28 -92 24 -118 -6 -32 -3 -37 37 -72 l43 -37
-29 -37 c-57 -75 -62 -140 -15 -190 27 -29 26 -33 -16 -37 -21 -2 -40 -10 -44
-18 -4 -8 -20 -44 -36 -79 -58 -128 -170 -181 -327 -154 l-39 6 7 57 c7 57 6
58 -24 76 -24 14 -31 25 -31 49 0 47 49 137 87 158 30 17 34 17 63 2 41 -21
82 -12 115 27 29 35 32 56 8 54 -15 -1 -18 8 -19 58 0 53 -4 62 -31 86 l-31
28 36 23 c20 13 43 36 51 51 16 28 19 21 -59 145 -13 20 -12 26 3 53 10 17 18
43 17 58 -1 15 -2 30 -1 34 1 7 77 -24 161 -67z m-872 35 c12 -16 22 -36 22
-45 0 -8 12 -33 26 -55 32 -48 29 -72 -11 -76 -45 -5 -75 -45 -75 -102 0 -77
36 -112 125 -122 l50 -5 12 -65 c7 -36 12 -122 13 -192 0 -142 1 -139 -73
-153 -38 -7 -59 -30 -41 -44 5 -3 17 -15 27 -27 17 -21 17 -22 -91 -87 -59
-36 -115 -69 -124 -72 -11 -5 -24 9 -47 50 -17 31 -39 59 -47 62 -8 3 -31 -3
-50 -13 -30 -17 -36 -17 -44 -4 -5 8 -7 36 -4 61 7 53 -15 143 -48 193 -28 42
-85 83 -129 91 -26 5 -39 15 -51 38 -24 49 -58 134 -58 147 0 6 27 45 60 86
101 123 255 249 341 280 22 7 54 24 72 36 76 55 115 60 145 18z m-1358 -86 c0
-8 -5 -12 -10 -9 -6 4 -8 11 -5 16 9 14 15 11 15 -7z m2584 -230 c23 -26 24
-29 11 -71 -20 -66 -60 -113 -95 -113 l-30 0 3 88 c1 48 -2 95 -7 105 -7 15
-2 17 43 17 41 0 54 -5 75 -26z m-142 -6 c5 -7 7 -44 6 -83 -2 -84 6 -111 34
-118 24 -7 78 13 94 34 6 8 23 46 38 84 15 39 35 78 43 88 17 18 87 24 98 8 3
-5 -8 -30 -25 -55 -34 -50 -64 -128 -58 -148 3 -7 26 28 52 77 61 118 70 128
108 131 49 3 51 -4 14 -49 -34 -42 -86 -137 -86 -157 0 -28 23 -3 55 58 64
124 130 173 199 146 25 -10 19 -22 -16 -37 -18 -8 -50 -32 -72 -53 -39 -40
-106 -136 -106 -152 0 -6 -13 -24 -29 -41 -27 -29 -34 -31 -95 -31 -78 0 -115
-14 -174 -63 -40 -34 -44 -35 -77 -24 -39 14 -115 106 -115 139 0 22 25 75 50
103 33 39 33 55 -6 91 -19 19 -40 34 -45 34 -18 0 -9 21 14 30 28 12 88 5 99
-12z m-482 -65 c41 -52 11 -139 -61 -175 -37 -20 -113 -24 -153 -8 -30 11 -34
30 -7 30 32 0 59 32 75 92 18 64 43 88 92 88 24 0 39 -8 54 -27z m89 -19 c6
-14 11 -43 11 -66 0 -27 6 -45 18 -54 16 -12 16 -14 -3 -28 -25 -19 -69 -20
-84 -2 -8 10 -7 23 5 51 8 21 15 56 14 79 -1 22 -1 44 -1 48 2 15 29 -4 40
-28z m757 -261 c41 -99 69 -188 95 -313 19 -94 23 -333 6 -443 -8 -54 -17
-100 -19 -103 -3 -2 -61 3 -129 12 -68 8 -173 20 -234 25 -120 11 -185 25
-185 39 0 14 -93 148 -147 211 -26 31 -71 77 -100 102 -28 25 -49 48 -46 51 4
3 29 6 56 6 68 0 160 25 238 66 72 38 201 150 224 194 14 28 14 30 -21 58
l-35 29 46 41 c47 42 66 47 175 55 25 2 48 4 52 5 4 1 15 -15 24 -35z m-1952
7 c69 -26 120 -112 131 -220 4 -36 13 -75 20 -86 12 -19 10 -25 -20 -54 -30
-29 -36 -31 -67 -22 -18 6 -57 13 -87 16 -83 8 -175 72 -200 139 -6 16 -11 48
-11 73 0 43 1 44 33 44 40 0 53 8 66 43 8 19 17 27 35 27 15 0 32 10 43 25 21
28 23 28 57 15z m1590 -80 c29 -11 64 -29 76 -40 l22 -19 -21 -30 c-68 -94
-236 -203 -359 -231 -52 -12 -119 -10 -154 5 -34 14 -18 -19 35 -75 105 -110
247 -293 247 -319 0 -13 16 -13 -215 0 -125 7 -197 15 -211 24 -12 8 -25 33
-32 65 -16 70 -15 77 8 52 23 -24 59 -29 78 -10 15 15 16 48 2 48 -5 0 -10 -7
-10 -16 0 -20 -30 -14 -44 9 -9 14 -7 21 7 31 24 18 21 26 -8 26 -18 0 -28 -7
-36 -27 -5 -15 -13 -22 -18 -17 -8 9 -71 187 -71 201 0 5 10 13 23 18 12 6 23
20 25 33 4 26 -6 28 -24 5 -13 -17 -15 -17 -29 1 -20 26 -19 37 5 43 11 3 20
9 20 13 0 13 -36 18 -55 8 -12 -8 -20 -6 -26 3 -13 20 -11 39 4 39 33 0 68 27
78 60 16 48 25 56 46 38 10 -8 26 -18 36 -21 28 -10 23 -82 -7 -102 -31 -20
-38 -39 -26 -69 20 -53 84 -57 101 -6 9 25 15 28 62 29 113 3 207 46 268 122
16 20 29 39 29 42 0 3 9 27 20 52 20 47 20 47 60 41 22 -3 64 -15 94 -26z
m-1866 -22 c-20 -63 -20 -89 -3 -134 40 -106 130 -165 259 -171 44 -2 82 -5
84 -8 2 -2 -8 -20 -24 -40 l-27 -36 39 -40 c74 -77 152 -131 197 -136 l42 -5
-25 22 c-14 11 -38 28 -55 37 -16 9 -51 39 -76 67 -44 47 -46 51 -32 73 19 28
138 133 151 133 12 0 77 -105 136 -219 l17 -32 56 52 c72 65 157 122 161 109
2 -6 -1 -39 -7 -73 -5 -34 -13 -101 -17 -149 -4 -49 -12 -95 -18 -104 -10 -13
-50 -17 -252 -25 -131 -5 -313 -13 -404 -19 -109 -6 -166 -6 -168 0 -2 6 -10
10 -17 10 -22 0 -26 15 -32 123 -3 56 -11 119 -18 139 -8 23 -9 40 -3 46 6 6
2 25 -12 51 -31 62 -22 176 27 319 17 49 37 58 21 10z m1117 -65 c32 -36 31
-49 -2 -56 -59 -13 -60 -9 33 -258 48 -129 89 -249 91 -267 l5 -33 -161 3
c-89 1 -165 5 -171 8 -6 4 -1 80 15 211 14 112 25 205 25 207 0 1 -6 2 -13 2
-15 0 -19 -3 -147 -104 -52 -42 -98 -76 -101 -76 -7 0 -54 99 -48 103 5 4 151
99 217 141 39 25 42 29 37 59 l-6 32 88 27 c48 15 94 27 101 27 7 1 24 -11 37
-26z m197 -148 c-5 -31 -18 -38 -36 -20 -26 26 -20 47 12 43 21 -2 26 -8 24
-23z m-253 -544 c12 -16 21 -34 21 -40 0 -22 18 -10 45 29 32 46 60 51 77 15
10 -22 7 -32 -25 -80 -21 -30 -37 -57 -37 -60 0 -2 13 -26 29 -52 40 -66 45
-88 26 -107 -27 -26 -44 -19 -77 35 l-31 51 -24 -45 -25 -45 -91 -1 c-51 0
-110 -3 -132 -6 -71 -11 -78 1 -83 159 -3 100 -1 140 8 151 10 11 35 15 111
15 83 0 100 -3 108 -17 9 -17 11 -16 26 5 22 30 50 28 74 -7z m249 -134 c-3
-78 -8 -150 -12 -159 -11 -25 -53 -23 -67 3 -6 12 -8 44 -5 77 3 32 5 94 6
140 0 76 2 83 23 91 13 5 30 5 41 -1 17 -9 18 -21 14 -151z m259 137 c26 -5
39 -39 23 -59 -6 -8 -28 -15 -48 -17 -35 -3 -37 -5 -39 -43 -11 -168 -14 -186
-39 -197 -43 -20 -49 -1 -46 133 l3 119 -26 0 c-57 0 -88 46 -47 69 16 9 165
6 219 -5z m-1080 -2 c17 -11 113 -254 113 -285 0 -46 -63 -46 -80 -1 -8 20
-16 24 -54 24 -40 0 -44 -2 -49 -29 -4 -17 -16 -35 -28 -41 -18 -10 -25 -9
-41 7 -18 18 -18 23 -4 79 8 32 24 97 36 144 11 47 28 91 37 98 19 14 52 16
70 4z m1342 -29 c64 -47 80 -164 32 -245 -59 -99 -212 -88 -257 19 -26 61 -10
167 32 214 38 42 143 48 193 12z m-1515 -24 c18 -22 26 -42 26 -70 0 -69 -28
-98 -105 -108 l-40 -6 -1 -49 c-2 -54 -21 -78 -54 -69 -24 6 -26 14 -41 138
-21 188 -20 190 128 194 57 1 63 -1 87 -30z m-353 -10 c19 -7 43 -19 53 -28
30 -26 56 -92 56 -146 0 -99 -57 -155 -159 -155 -48 0 -57 3 -91 38 -42 42
-63 113 -53 177 7 46 68 112 110 118 15 2 33 5 39 6 6 0 26 -4 45 -10z m2309
-24 c38 -36 42 -90 8 -101 -17 -5 -28 0 -48 25 -46 55 -97 37 -118 -42 -24
-89 35 -137 100 -82 23 20 33 23 49 15 37 -20 15 -82 -39 -110 -32 -16 -114
-4 -146 21 -35 28 -50 81 -43 155 10 108 62 158 155 151 41 -3 59 -10 82 -32z
m-2560 -54 c29 -21 33 -59 7 -75 -13 -8 -24 -7 -48 7 -39 22 -54 22 -79 -3
-24 -24 -25 -56 -4 -111 28 -69 90 -74 112 -9 8 22 17 30 34 30 52 0 63 -50
23 -99 -51 -59 -152 -67 -206 -15 -38 36 -63 120 -55 178 16 104 134 158 216
97z m2890 9 c11 -11 20 -26 20 -32 0 -7 7 -71 15 -142 16 -135 13 -156 -25
-156 -22 0 -37 18 -42 50 -2 21 -11 27 -47 34 -35 7 -46 7 -49 -3 -6 -18 -40
-51 -51 -51 -19 0 -42 32 -36 51 9 28 138 253 150 261 18 13 45 8 65 -12z
m-242 -202 c27 -27 7 -78 -30 -78 -29 0 -42 37 -23 66 17 26 35 30 53 12z
m377 -102 c0 -52 -63 -62 -73 -12 -7 33 6 47 40 44 29 -3 33 -7 33 -32z"/>
<path d="M2030 2582 c0 -4 5 -13 12 -20 9 -9 8 -12 -3 -16 -64 -19 -139 -51
-166 -72 -17 -13 -36 -24 -42 -24 -29 0 5 -58 46 -79 52 -26 171 3 188 47 8
23 -3 27 -23 9 -23 -21 -85 -47 -113 -47 -12 0 -37 9 -56 21 -27 17 -31 24
-22 35 9 12 16 10 41 -11 16 -14 40 -25 54 -25 33 0 64 34 64 69 0 33 14 41
71 41 47 0 49 12 10 51 -28 27 -61 39 -61 21z"/>
<path d="M1696 2302 c-2 -4 0 -17 4 -28 7 -17 15 -20 34 -17 14 3 26 8 26 12
0 10 -59 41 -64 33z"/>
<path d="M2295 1316 c-11 -8 -15 -23 -13 -46 6 -64 87 -82 96 -21 4 25 -6 27
-23 5 -10 -15 -13 -15 -28 1 -22 22 -21 36 3 42 11 3 20 9 20 13 0 14 -39 18
-55 6z"/>
<path d="M1815 994 c-8 -13 -25 -16 -73 -15 -60 1 -62 0 -62 -23 0 -24 4 -25
63 -28 62 -3 62 -3 62 -33 0 -30 -1 -30 -65 -35 -47 -4 -66 -9 -67 -20 -6 -30
13 -38 90 -41 l78 -4 30 48 c16 26 29 50 29 53 0 9 -64 113 -70 114 -3 0 -10
-7 -15 -16z"/>
<path d="M1310 900 c0 -8 -3 -25 -6 -37 -5 -20 -2 -23 20 -23 24 0 25 2 14 28
-15 36 -28 50 -28 32z"/>
<path d="M2567 940 c-49 -39 -45 -150 7 -170 37 -14 63 -2 81 37 22 46 15 111
-15 135 -28 23 -41 23 -73 -2z"/>
<path d="M1047 933 c-11 -3 -16 -10 -13 -20 3 -8 6 -21 6 -29 0 -19 54 -19 69
0 9 11 10 20 1 35 -10 20 -26 24 -63 14z"/>
<path d="M732 880 c-34 -32 -22 -139 18 -160 54 -29 95 7 94 81 -1 83 -62 125
-112 79z"/>
<path d="M3387 762 c-16 -34 -13 -42 15 -42 19 0 25 34 9 59 -6 10 -12 6 -24
-17z"/>
</g>
</svg>
